<svg width="40" height="44" viewBox="0 0 40 44" fill="none" xmlns="http://www.w3.org/2000/svg">
<path d="M6.22266 29.0003C5.2944 29.0003 4.40416 28.5788 3.74778 27.8287C3.09141 27.0785 2.72266 26.0611 2.72266 25.0002C2.72266 23.9393 3.09141 22.9219 3.74778 22.1718C4.40416 21.4216 5.2944 21.0002 6.22266 21.0002M34.2227 29.0003C35.1509 29.0003 36.0412 28.5788 36.6975 27.8287C37.3539 27.0785 37.7227 26.0611 37.7227 25.0002C37.7227 23.9393 37.3539 22.9219 36.6975 22.1718C36.0412 21.4216 35.1509 21.0002 34.2227 21.0002M11.4727 12.0001V5.99999M28.9727 12.0001V5.99999" stroke="#25758A" stroke-width="3.5" stroke-linecap="round" stroke-linejoin="round"/>
<path d="M11.4727 6.00005C12.4392 6.00005 13.2227 5.10461 13.2227 4.00002C13.2227 2.89544 12.4392 2 11.4727 2C10.5062 2 9.72266 2.89544 9.72266 4.00002C9.72266 5.10461 10.5062 6.00005 11.4727 6.00005Z" stroke="#25758A" stroke-width="3.5" stroke-linecap="round" stroke-linejoin="round"/>
<path d="M28.9746 6.00005C29.9411 6.00005 30.7246 5.10461 30.7246 4.00002C30.7246 2.89544 29.9411 2 28.9746 2C28.0081 2 27.2246 2.89544 27.2246 4.00002C27.2246 5.10461 28.0081 6.00005 28.9746 6.00005Z" stroke="#25758A" stroke-width="3.5" stroke-linecap="round" stroke-linejoin="round"/>
<path d="M22.8477 12.0001H17.5977C12.6487 12.0001 10.1724 12.0001 8.63591 13.8181C7.09941 15.6361 7.09766 18.5621 7.09766 24.4142C7.09766 30.2663 7.09766 33.1923 8.63591 35.0103C10.1724 36.8283 12.6487 36.8283 17.5977 36.8283H19.3914C20.7774 36.8283 21.2657 37.1544 22.2212 38.3424C23.2764 39.6564 24.9109 41.4104 26.3897 41.8184C28.4914 42.3984 28.7277 41.5964 28.2587 39.3064C28.1257 38.6544 27.7914 37.6124 28.1432 37.0044C28.3409 36.6643 28.6682 36.5803 29.3244 36.4123C30.3587 36.1483 31.2127 35.7163 31.8094 35.0103C33.3477 33.1903 33.3477 30.2663 33.3477 24.4142C33.3477 18.5621 33.3477 15.6361 31.8094 13.8181C30.2729 12.0001 27.7967 12.0001 22.8477 12.0001Z" stroke="#25758A" stroke-width="3.5" stroke-linecap="round" stroke-linejoin="round"/>
<path d="M15.8477 28.0003C16.8452 29.2143 18.4342 30.0003 20.2227 30.0003C22.0112 30.0003 23.6002 29.2143 24.5977 28.0003M14.9884 20.0002H14.9727M25.4884 20.0002H25.4727" stroke="#145566" stroke-width="3.5" stroke-linecap="round" stroke-linejoin="round"/>
</svg>
