<svg width="64" height="64" viewBox="0 0 64 64" fill="none" xmlns="http://www.w3.org/2000/svg">
<path d="M60.87 49.2812L48.0713 41.8824C46.6663 41.0699 44.8425 41.4799 43.92 42.8149L41.3513 46.5336C40.8938 47.1961 40.0063 47.4224 39.2863 47.0574L36.3038 45.5462C32.4738 43.6049 28.9925 41.0812 25.955 38.0449C22.9175 35.0086 20.395 31.5274 18.4538 27.6962L16.9425 24.7137C16.5775 23.9949 16.8038 23.1074 17.4663 22.6487L21.185 20.0799C22.52 19.1574 22.93 17.3337 22.1175 15.9287L14.7188 3.1299C13.9763 1.84615 12.4175 1.2549 11.01 1.72365C7.92503 2.7524 5.31378 4.8599 3.65628 7.6574L2.71378 9.24865C1.49628 11.3037 1.23003 13.7824 1.98378 16.0487C5.52253 26.7037 11.59 36.5324 19.5288 44.4711C27.4675 52.4099 37.2963 58.4774 47.9513 62.0162C48.7988 62.2974 49.6763 62.4374 50.55 62.4374C52.0125 62.4374 53.465 62.0487 54.7513 61.2862L56.3425 60.3437C59.14 58.6861 61.2475 56.0749 62.2763 52.9899C62.745 51.5837 62.1538 50.0237 60.87 49.2812ZM44.64 43.3124C45.305 42.3499 46.62 42.0536 47.6338 42.6399L49.4738 43.7037C47.9938 43.4074 46.4288 43.8374 45.3025 44.9137L44.035 44.1887L44.64 43.3124ZM55.8963 59.5912L54.305 60.5336C52.4675 61.6212 50.2525 61.8599 48.2263 61.1861C37.7 57.6899 27.99 51.6949 20.1463 43.8524C12.3025 36.0099 6.31003 26.2999 2.81378 15.7737C2.14128 13.7474 2.37878 11.5324 3.46628 9.6949L4.40878 8.10365C5.95878 5.4874 8.40128 3.51615 11.2863 2.5549C11.52 2.4774 11.76 2.4399 11.9963 2.4399C12.7875 2.4399 13.5488 2.85615 13.96 3.56865L15.625 6.44865C14.4438 5.4749 12.9013 4.9999 11.3425 5.1749L10.8425 4.2999C10.7225 4.0899 10.455 4.0174 10.245 4.1374C10.035 4.2574 9.96253 4.5249 10.0825 4.7349L19.085 20.4674L16.97 21.9287C15.9488 22.6337 15.6013 24.0012 16.1625 25.1087L17.6738 28.0912C19.6575 32.0037 22.2363 35.5611 25.3375 38.6624C28.44 41.7636 31.9963 44.3424 35.9088 46.3261L38.8913 47.8374C39.9988 48.3987 41.3663 48.0512 42.0713 47.0299L43.5363 44.9099L60.6 54.6749C59.5163 56.6999 57.8963 58.4074 55.8963 59.5912Z" fill="#25758A"/>
<path d="M34.5163 50.1236C33.945 49.7761 33.3738 49.4149 32.8175 49.0524C32.615 48.9199 32.3438 48.9774 32.2125 49.1786C32.08 49.3811 32.1375 49.6524 32.3388 49.7836C32.9013 50.1524 33.4813 50.5174 34.0613 50.8711C34.1325 50.9149 34.2113 50.9349 34.2888 50.9349C34.4363 50.9349 34.58 50.8599 34.6625 50.7249C34.7888 50.5186 34.7225 50.2486 34.5163 50.1236Z" fill="#25758A"/>
<path d="M30.8948 47.7412C23.9973 42.8487 18.271 36.7062 13.876 29.4837C13.751 29.2775 13.481 29.2125 13.2748 29.3375C13.0685 29.4625 13.0023 29.7325 13.1285 29.9387C17.586 37.2637 23.3923 43.4937 30.3885 48.455C30.4648 48.51 30.5535 48.5362 30.641 48.5362C30.7785 48.5362 30.9135 48.4725 30.9985 48.3525C31.1385 48.1537 31.0923 47.8812 30.8948 47.7412Z" fill="#25758A"/>
<path d="M56.2599 2H36.5774C33.4074 2 30.8374 4.57 30.8374 7.74V22.6038C30.8374 25.7738 33.4074 28.3438 36.5774 28.3438C37.5812 28.3438 38.3962 29.1575 38.3962 30.1625V33.9487C38.3962 34.6675 39.2662 35.0288 39.7737 34.52L44.9787 29.315C45.5999 28.6938 46.4424 28.345 47.3199 28.345H56.2587C59.4287 28.345 61.9987 25.775 61.9987 22.605V7.74C61.9999 4.57 59.4299 2 56.2599 2ZM55.2449 17.25C55.2449 17.7825 54.8137 18.215 54.2799 18.215H49.5012C49.3637 18.215 49.2524 18.3263 49.2524 18.4638V23.2425C49.2524 23.775 48.8212 24.2075 48.2874 24.2075H44.5474C44.0149 24.2075 43.5824 23.7763 43.5824 23.2425V18.4625C43.5824 18.325 43.4712 18.2138 43.3337 18.2138H38.5549C38.0224 18.2138 37.5899 17.7825 37.5899 17.2488V13.5087C37.5899 12.9762 38.0212 12.5437 38.5549 12.5437H43.3337C43.4712 12.5437 43.5824 12.4325 43.5824 12.295V7.5175C43.5824 6.985 44.0137 6.5525 44.5474 6.5525H48.2874C48.8199 6.5525 49.2524 6.98375 49.2524 7.5175V12.2963C49.2524 12.4338 49.3637 12.545 49.5012 12.545H54.2799C54.8124 12.545 55.2449 12.9763 55.2449 13.51V17.25Z" fill="#25758A"/>
<path d="M12.3362 11.5036L9.82372 6.91732C9.27372 5.91232 7.85122 5.85482 7.21997 6.81107L5.14497 9.96357C4.12247 11.5173 4.93247 13.6148 6.73372 14.0786L9.73497 14.8498C11.6925 15.3523 13.3062 13.2761 12.3362 11.5036Z" fill="#A7E8E0"/>
<path d="M54.306 52.5298L57.1123 54.2198C58.1498 54.8448 58.2498 56.3111 57.3073 57.0711L56.1085 58.0386C55.0123 58.9236 53.3723 58.4998 52.841 57.1948L51.811 54.6648C51.1835 53.1236 52.881 51.6723 54.306 52.5298Z" fill="#A7E8E0"/>
</svg>
