<svg width="64" height="64" viewBox="0 0 64 64" fill="none" xmlns="http://www.w3.org/2000/svg">
<path d="M25.6353 62.0001H31.5627V50.7892C31.5627 50.5475 31.7586 50.3517 32.0002 50.3517C32.2419 50.3517 32.4377 50.5475 32.4377 50.7892V62.0001H38.3652V48.7026H25.6353V62.0001Z" fill="#25758A"/>
<path d="M53.3027 30.4775H50.5943C50.1898 30.4775 49.8618 30.8055 49.8618 31.21V33.9184C49.8618 34.323 50.1898 34.6509 50.5943 34.6509H53.3027C53.7072 34.6509 54.0352 34.323 54.0352 33.9184V31.21C54.0352 30.8055 53.7072 30.4775 53.3027 30.4775Z" fill="#25758A"/>
<path d="M53.3027 39.5898H50.5943C50.1898 39.5898 49.8618 39.9178 49.8618 40.3223V43.0307C49.8618 43.4353 50.1898 43.7632 50.5943 43.7632H53.3027C53.7072 43.7632 54.0352 43.4353 54.0352 43.0307V40.3223C54.0352 39.9178 53.7072 39.5898 53.3027 39.5898Z" fill="#25758A"/>
<path d="M53.3027 48.7026H50.5943C50.1898 48.7026 49.8618 49.0306 49.8618 49.4351V52.1435C49.8618 52.5481 50.1898 52.876 50.5943 52.876H53.3027C53.7072 52.876 54.0352 52.5481 54.0352 52.1435V49.4351C54.0352 49.0306 53.7072 48.7026 53.3027 48.7026Z" fill="#25758A"/>
<path d="M13.4062 30.4775H10.6978C10.2933 30.4775 9.96533 30.8055 9.96533 31.21V33.9184C9.96533 34.323 10.2933 34.6509 10.6978 34.6509H13.4062C13.8108 34.6509 14.1387 34.323 14.1387 33.9184V31.21C14.1387 30.8055 13.8108 30.4775 13.4062 30.4775Z" fill="#25758A"/>
<path d="M13.4062 39.5898H10.6978C10.2933 39.5898 9.96533 39.9178 9.96533 40.3223V43.0307C9.96533 43.4353 10.2933 43.7632 10.6978 43.7632H13.4062C13.8108 43.7632 14.1387 43.4353 14.1387 43.0307V40.3223C14.1387 39.9178 13.8108 39.5898 13.4062 39.5898Z" fill="#25758A"/>
<path d="M13.4062 48.7026H10.6978C10.2933 48.7026 9.96533 49.0306 9.96533 49.4351V52.1435C9.96533 52.5481 10.2933 52.876 10.6978 52.876H13.4062C13.8108 52.876 14.1387 52.5481 14.1387 52.1435V49.4351C14.1387 49.0306 13.8108 48.7026 13.4062 48.7026Z" fill="#25758A"/>
<path d="M37.2711 7.21043H31.297C31.0601 7.21043 30.8478 7.03302 30.8354 6.79643C30.8222 6.54412 31.0229 6.33543 31.2723 6.33543H36.2002C36.7093 6.33543 37.1029 5.88862 37.0386 5.38357L36.9656 4.81008C36.8935 4.24333 36.4126 3.81774 35.8413 3.81508L27.8464 3.77784C27.1583 3.77464 26.6246 4.37776 26.7114 5.06038L27.0342 7.59694C27.1064 8.16369 27.5873 8.58927 28.1586 8.59193L36.1535 8.62916C36.8416 8.63237 37.3753 8.02926 37.2885 7.34665L37.2711 7.21043Z" fill="#A7E8E0"/>
<path d="M24.6907 27.1609C24.708 29.0755 24.7606 34.902 26.6482 36.5894C27.0356 36.9357 27.4793 37.1105 27.9699 37.1104C28.0429 37.1104 28.117 37.1065 28.192 37.0988C28.8318 37.0328 29.3055 36.4671 29.2707 35.811C29.1341 33.2418 29.9369 30.9515 31.2229 30.2413C31.7095 29.9726 32.2906 29.9726 32.7771 30.2413C34.0631 30.9515 34.866 33.2418 34.7294 35.811C34.6945 36.4671 35.1683 37.0328 35.8081 37.0988C36.3874 37.1586 36.9068 36.9873 37.3518 36.5894C37.8187 36.172 39.2395 34.902 39.3094 27.1609C39.3104 27.0423 39.3398 26.9265 39.3943 26.8261C41.5406 22.8735 40.9042 18.6467 37.9142 16.9943C36.7505 16.3513 35.3534 16.2751 34.0814 16.7851C33.2361 17.1239 32.591 17.354 32.0001 17.5274C31.3531 17.3365 30.6602 17.0823 29.9187 16.7851C28.6467 16.2751 27.2496 16.3513 26.0859 16.9943C23.0958 18.6468 22.4594 22.8735 24.6058 26.8262C24.6603 26.9265 24.6897 27.0423 24.6907 27.1609ZM26.5091 17.7602C27.4418 17.2447 28.5658 17.1854 29.5931 17.5972C31.6187 18.4092 33.9397 19.2159 35.8518 18.5036C36.0782 18.4193 36.1934 18.1673 36.109 17.9409C36.0247 17.7145 35.773 17.5994 35.5463 17.6837C34.9856 17.8926 34.367 17.9455 33.6855 17.8785C33.911 17.7934 34.1502 17.7001 34.4069 17.5972C35.4342 17.1853 36.5583 17.2447 37.4909 17.7602C40.0476 19.1731 40.5353 22.8911 38.6253 26.4086C38.5028 26.6343 38.4367 26.8916 38.4344 27.153C38.4041 30.508 38.0905 34.7554 36.7687 35.937C36.5078 36.1703 36.2308 36.2629 35.8979 36.2284C35.7254 36.2106 35.5932 36.0442 35.6032 35.8574C35.7593 32.92 34.7936 30.3553 33.2001 29.4753C32.8244 29.2679 32.4122 29.1642 32 29.1642C31.5879 29.1642 31.1757 29.2679 30.8 29.4753C29.2064 30.3553 28.2408 32.92 28.3969 35.8575C28.4068 36.0442 28.2746 36.2106 28.1021 36.2284C27.7691 36.2629 27.4922 36.1703 27.2314 35.937C25.9095 34.7554 25.596 30.508 25.5657 27.153C25.5633 26.8916 25.4973 26.6343 25.3747 26.4086C23.4647 22.8911 23.9524 19.1731 26.5091 17.7602Z" fill="#25758A"/>
<path d="M62 61.5625H45.5314V26.2863H58.365V59.8427C58.365 60.0843 58.5609 60.2802 58.8025 60.2802C59.0441 60.2802 59.24 60.0843 59.24 59.8427V26.2863H59.8109C60.5176 26.2863 61.0925 25.7113 61.0925 25.0046V23.0779C61.0925 22.3712 60.5176 21.7963 59.8109 21.7963H55.4325V16.7787H56.5425C56.7841 16.7787 56.98 16.5829 56.98 16.3412C56.98 16.0996 56.7841 15.9037 56.5425 15.9037H45.5314V14.7188H46.9972C47.7039 14.7188 48.2789 14.1439 48.2789 13.4371V11.5104C48.2789 10.8037 47.7039 10.2288 46.9972 10.2288H25.2449V2.4375H38.7551V8.3103C38.7551 8.55194 38.9509 8.7478 39.1926 8.7478C39.4342 8.7478 39.6301 8.55194 39.6301 8.3103V2.4375H40.3636C40.6052 2.4375 40.8011 2.24164 40.8011 2C40.8011 1.75836 40.6052 1.5625 40.3636 1.5625H23.6364C23.3948 1.5625 23.1989 1.75836 23.1989 2C23.1989 2.24164 23.3948 2.4375 23.6364 2.4375H24.3699V10.2288H17.0028C16.2961 10.2288 15.7211 10.8037 15.7211 11.5104V13.4371C15.7211 14.1439 16.2961 14.7188 17.0028 14.7188H18.4686V21.7963H9.4425V16.7787H16.5802C16.8218 16.7787 17.0177 16.5829 17.0177 16.3412C17.0177 16.0996 16.8218 15.9037 16.5802 15.9037H7.45752C7.21588 15.9037 7.02002 16.0996 7.02002 16.3412C7.02002 16.5829 7.21588 16.7787 7.45752 16.7787H8.5675V21.7963H4.18915C3.48242 21.7963 2.90747 22.3712 2.90747 23.0779V25.0046C2.90747 25.7113 3.48242 26.2863 4.18915 26.2863H4.76001V61.5625H2C1.75836 61.5625 1.5625 61.7584 1.5625 62C1.5625 62.2416 1.75836 62.4375 2 62.4375H62C62.2416 62.4375 62.4375 62.2416 62.4375 62C62.4375 61.7584 62.2416 61.5625 62 61.5625ZM45.5314 16.7787H54.5575V21.7963H45.5314V16.7787ZM45.5314 22.6713H49.5239C48.7428 23.0953 48.1252 23.8022 47.8284 24.6847C47.742 24.9414 47.7809 25.2018 47.9038 25.4113H45.5314V22.6713ZM4.18915 25.4113C3.9649 25.4113 3.78247 25.2288 3.78247 25.0046V23.0779C3.78247 22.8537 3.9649 22.6713 4.18915 22.6713H8.30548C7.54621 23.0897 6.94793 23.783 6.66401 24.6462C6.57462 24.918 6.62018 25.1927 6.75468 25.4113L4.18915 25.4113ZM18.4686 61.5625H5.63501V26.2863H18.4686V61.5625ZM17.0028 13.8438C16.7786 13.8438 16.5961 13.6614 16.5961 13.4371V11.5104C16.5961 11.2862 16.7786 11.1038 17.0028 11.1038H23.0481C22.1843 11.5185 21.4606 12.2084 21.0129 13.0959C20.8852 13.349 20.904 13.6228 21.0206 13.8438H17.0028ZM44.6564 25.8469C44.6564 25.8476 44.6562 25.8481 44.6562 25.8488C44.6562 25.8494 44.6564 25.8499 44.6564 25.8506V61.5625H19.3436V25.8506C19.3436 25.8499 19.3438 25.8494 19.3438 25.8488C19.3438 25.8481 19.3436 25.8476 19.3436 25.8469V14.7188H44.6564V25.8469Z" fill="#25758A"/>
<path d="M39.0273 44.9961H24.9725C24.3375 44.9961 23.8208 45.5128 23.8208 46.1478V47.9885C23.8208 48.6236 24.3375 49.1403 24.9725 49.1403H39.0273C39.6624 49.1403 40.1791 48.6236 40.1791 47.9885V46.1478C40.1791 45.5128 39.6624 44.9961 39.0273 44.9961ZM39.3041 47.9885C39.3041 48.1411 39.1799 48.2653 39.0273 48.2653H24.9725C24.8199 48.2653 24.6958 48.1411 24.6958 47.9885V46.1478C24.6958 45.9952 24.8199 45.8711 24.9725 45.8711H39.0273C39.1799 45.8711 39.3041 45.9952 39.3041 46.1478V47.9885Z" fill="#25758A"/>
<path d="M51.6794 18.6001H48.4097C48.168 18.6001 47.9722 18.796 47.9722 19.0376C47.9722 19.2792 48.168 19.4751 48.4097 19.4751H51.6794C51.9211 19.4751 52.1169 19.2792 52.1169 19.0376C52.1169 18.796 51.9211 18.6001 51.6794 18.6001Z" fill="#25758A"/>
<path d="M12.3208 18.6001C12.0792 18.6001 11.8833 18.796 11.8833 19.0376C11.8833 19.2792 12.0792 19.4751 12.3208 19.4751H15.5906C15.8322 19.4751 16.0281 19.2792 16.0281 19.0376C16.0281 18.796 15.8322 18.6001 15.5906 18.6001H12.3208Z" fill="#25758A"/>
<path d="M28.6519 5.46436C28.4102 5.46436 28.2144 5.66022 28.2144 5.90186C28.2144 6.14349 28.4102 6.33936 28.6519 6.33936H35.1411C35.3827 6.33936 35.5786 6.14349 35.5786 5.90186C35.5786 5.66022 35.3827 5.46436 35.1411 5.46436H28.6519Z" fill="#25758A"/>
<path d="M37.3527 39.2817C37.3527 39.0401 37.1568 38.8442 36.9152 38.8442H27.0845C26.8428 38.8442 26.647 39.0401 26.647 39.2817C26.647 39.5234 26.8428 39.7192 27.0845 39.7192H36.9152C37.1568 39.7192 37.3527 39.5234 37.3527 39.2817Z" fill="#25758A"/>
<path d="M28.3638 41.9199C28.1221 41.9199 27.9263 42.1158 27.9263 42.3574C27.9263 42.5991 28.1221 42.7949 28.3638 42.7949H35.6365C35.8781 42.7949 36.074 42.5991 36.074 42.3574C36.074 42.1158 35.8781 41.9199 35.6365 41.9199H28.3638Z" fill="#25758A"/>
</svg>
