<svg width="35" height="35" viewBox="0 0 35 35" fill="none" xmlns="http://www.w3.org/2000/svg">
<path d="M15 13.75C16.3261 13.75 17.5979 13.2232 18.5355 12.2855C19.4732 11.3479 20 10.0761 20 8.75C20 7.42392 19.4732 6.15215 18.5355 5.21447C17.5979 4.27678 16.3261 3.75 15 3.75C13.6739 3.75 12.4021 4.27678 11.4645 5.21447C10.5268 6.15215 10 7.42392 10 8.75C10 10.0761 10.5268 11.3479 11.4645 12.2855C12.4021 13.2232 13.6739 13.75 15 13.75ZM15 11.25C14.337 11.25 13.7011 10.9866 13.2322 10.5178C12.7634 10.0489 12.5 9.41304 12.5 8.75C12.5 8.08696 12.7634 7.45107 13.2322 6.98223C13.7011 6.51339 14.337 6.25 15 6.25C15.663 6.25 16.2989 6.51339 16.7678 6.98223C17.2366 7.45107 17.5 8.08696 17.5 8.75C17.5 9.41304 17.2366 10.0489 16.7678 10.5178C16.2989 10.9866 15.663 11.25 15 11.25ZM8.75 15C7.75544 15 6.80161 15.3951 6.09835 16.0983C5.39509 16.8016 5 17.7554 5 18.75C5 19.57 5.1 21.37 6.56 22.9475C8.025 24.53 10.6125 25.625 14.995 25.625C19.3725 25.625 21.965 24.54 23.4325 22.965C24.9 21.3925 25 19.59 25 18.75C25 17.7554 24.6049 16.8016 23.9017 16.0983C23.1984 15.3951 22.2446 15 21.25 15H8.75ZM7.5 18.75C7.5 18.4185 7.6317 18.1005 7.86612 17.8661C8.10054 17.6317 8.41848 17.5 8.75 17.5H21.25C21.5815 17.5 21.8995 17.6317 22.1339 17.8661C22.3683 18.1005 22.5 18.4185 22.5 18.75C22.5 19.38 22.4175 20.39 21.605 21.26C20.7925 22.13 19.0075 23.125 14.995 23.125C10.985 23.125 9.2025 22.1225 8.395 21.25C7.58 20.37 7.5 19.36 7.5 18.75ZM0 7.5C0 5.51088 0.790177 3.60322 2.1967 2.1967C3.60322 0.790177 5.51088 0 7.5 0H22.5C24.4891 0 26.3968 0.790177 27.8033 2.1967C29.2098 3.60322 30 5.51088 30 7.5V22.5C30 24.4891 29.2098 26.3968 27.8033 27.8033C26.3968 29.2098 24.4891 30 22.5 30H7.5C5.51088 30 3.60322 29.2098 2.1967 27.8033C0.790177 26.3968 0 24.4891 0 22.5V7.5ZM7.5 2.5C6.17392 2.5 4.90215 3.02678 3.96447 3.96447C3.02678 4.90215 2.5 6.17392 2.5 7.5V22.5C2.5 23.8261 3.02678 25.0979 3.96447 26.0355C4.90215 26.9732 6.17392 27.5 7.5 27.5H22.5C23.8261 27.5 25.0979 26.9732 26.0355 26.0355C26.9732 25.0979 27.5 23.8261 27.5 22.5V7.5C27.5 6.17392 26.9732 4.90215 26.0355 3.96447C25.0979 3.02678 23.8261 2.5 22.5 2.5H7.5ZM12.5 35C11.4448 35 10.4015 34.7773 9.43823 34.3465C8.47498 33.9157 7.61347 33.2865 6.91 32.5H23.75C26.0706 32.5 28.2962 31.5781 29.9372 29.9372C31.5781 28.2962 32.5 26.0706 32.5 23.75V6.91C34.035 8.285 35 10.28 35 12.5V23.75C35 26.7337 33.8147 29.5952 31.705 31.705C29.5952 33.8147 26.7337 35 23.75 35H12.5Z" fill="white"/>
</svg>
