<svg width="48" height="48" viewBox="0 0 48 48" fill="none" xmlns="http://www.w3.org/2000/svg">
<g clip-path="url(#clip0_299_70)">
<path fill-rule="evenodd" clip-rule="evenodd" d="M21 22C22.1046 22 23 21.1046 23 20C23 18.8954 22.1046 18 21 18C19.8954 18 19 18.8954 19 20C19 21.1046 19.8954 22 21 22ZM21 24C23.2091 24 25 22.2091 25 20C25 17.7909 23.2091 16 21 16C18.7909 16 17 17.7909 17 20C17 22.2091 18.7909 24 21 24Z" fill="#192655"/>
<path fill-rule="evenodd" clip-rule="evenodd" d="M19.3655 2.1177C19.7147 2.30769 19.9374 2.67768 19.9374 3.09167V12.3674C19.9377 12.5347 19.8997 12.6998 19.8263 12.8502C19.753 13.0006 19.6462 13.1323 19.514 13.2354L16.4638 15.5874C17.8986 16.5813 19.9374 17.9893 19.9374 20.0012C19.9374 22.1312 18.0792 23.6332 16.4116 24.5651L19.4819 26.7371C19.7689 26.9471 19.9374 27.2771 19.9374 27.6371V36.9128C19.9381 37.1085 19.8864 37.3008 19.7876 37.4699C19.6888 37.639 19.5466 37.7787 19.3756 37.8748C19.2054 37.9665 19.013 38.0093 18.8199 37.9983C18.6268 37.9874 18.4405 37.9231 18.2819 37.8128L6.59269 29.637C5.81338 29.1137 5.17126 28.4119 4.72016 27.5903C4.26905 26.7687 4.0221 25.8514 4 24.9151C4 23.5712 4.59399 21.9512 6.58065 20.0432C5.06156 18.7533 4 17.1853 4 15.0894C4 12.5794 6.9218 10.4295 8.71581 9.27552L18.2478 2.21369C18.4064 2.09586 18.5948 2.02445 18.7919 2.00749C18.989 1.99053 19.187 2.02869 19.3635 2.1177M8.50711 12.1034C7.73051 12.7374 6.12713 13.9354 6.12713 15.0894C6.12713 16.6973 7.10441 17.6933 8.25226 18.6353L11.4389 16.5493L13.5641 17.8213L10.0362 19.9912L14.4129 23.1352C15.5828 22.6392 17.8143 21.5472 17.8143 20.0012C17.8143 18.3613 15.1995 17.3453 14.0417 16.5493C12.2035 15.2794 9.6971 14.0934 8.51714 12.1034H8.50711ZM8.2944 21.3892C6.35991 23.1472 6.12713 24.3211 6.12713 24.9151C6.12713 25.6871 6.52045 26.9591 7.77265 27.827H7.78469L8.68772 28.463C8.97602 27.6787 9.42814 26.9644 10.0142 26.3672C10.6002 25.7701 11.3067 25.3038 12.0871 24.9991L13.6584 26.5451C12.3841 27.1171 11.0677 28.271 10.8229 28.823C10.6797 29.1342 10.6143 29.4752 10.6322 29.817L17.8143 34.8469V28.207C14.6299 25.9492 11.4566 23.6759 8.2944 21.3872M10.249 10.8295C10.9714 12.3754 13.255 13.3934 14.5935 14.3034L17.8143 11.8155V5.23162L10.249 10.8415V10.8295ZM22.6265 2.1257C22.7947 2.03481 22.9847 1.99177 23.1759 2.0013C23.367 2.01082 23.5518 2.07254 23.7101 2.17969L34.8675 9.8235C36.7257 11.0835 38 12.7254 38 15.0874C38 17.0253 36.7779 18.6553 35.4515 19.9152C36.6194 20.8672 38 22.4552 38 24.9131C38 27.983 35.7585 29.455 34.2815 30.419L33.8039 30.727C32.9952 31.287 26.7382 35.6609 23.7302 37.8108C23.5715 37.9211 23.3853 37.9854 23.1921 37.9963C22.999 38.0073 22.8066 37.9645 22.6365 37.8728C22.4632 37.7783 22.3185 37.6392 22.2176 37.47C22.1166 37.3008 22.0631 37.1077 22.0626 36.9108V27.6351C22.0626 27.2951 22.2231 26.9671 22.488 26.7671L25.474 24.4671C23.8164 23.4412 22.0626 22.2672 22.0626 19.9992C22.0626 18.0093 24.1134 16.4633 25.5161 15.4154L22.5201 13.2554C22.3787 13.1537 22.2635 13.0199 22.184 12.8652C22.1045 12.7105 22.0628 12.5393 22.0626 12.3654V3.09167C22.0596 2.89665 22.1106 2.70458 22.2101 2.53662C22.3096 2.36866 22.4537 2.23131 22.6265 2.1397V2.1257ZM27.3643 16.7393C26.5476 17.3313 24.1877 18.7293 24.1877 19.9992C24.1877 21.7592 26.7804 22.7312 27.9182 23.4312L27.9583 23.4512C29.957 24.8171 32.4534 25.9831 33.7618 28.143C34.9939 27.2831 35.8749 26.4811 35.8749 24.9131C35.8749 23.1872 34.7812 22.0972 33.7718 21.3452L30.5631 23.8231L28.4379 22.7312L31.9437 20.0312L27.3764 16.7493L27.3643 16.7393ZM33.6855 18.6233L24.1877 11.7935V5.12562L31.0407 9.8155C32.1564 10.5775 28.8734 13.0974 28.4379 13.4574L30.5631 14.5494C31.7531 13.5634 32.646 12.8974 33.1879 11.2875L33.6976 11.6375C34.9417 12.4834 35.8749 13.4694 35.8749 15.0894C35.8749 16.5293 34.6648 17.7353 33.6875 18.6253M31.9878 29.351C31.0326 27.6571 28.9376 26.7471 27.4205 25.6991L24.1897 28.187V34.8269L31.9999 29.351H31.9878Z" fill="#25434E"/>
</g>
<defs>
<clipPath id="clip0_299_70">
<rect width="48" height="48" fill="white"/>
</clipPath>
</defs>
</svg>
