<svg width="64" height="64" viewBox="0 0 64 64" fill="none" xmlns="http://www.w3.org/2000/svg">
<path d="M50.0448 12.9873C43.4423 12.9873 38.0898 18.3398 38.0898 24.9423C38.0898 31.5448 43.4423 36.8973 50.0448 36.8973C56.6473 36.8973 61.9998 31.5448 61.9998 24.9423C61.9998 18.3398 56.6473 12.9873 50.0448 12.9873ZM51.9773 31.1661C51.8323 32.1036 51.0223 32.8198 50.0448 32.8198C49.0673 32.8198 48.2573 32.1023 48.1123 31.1661C48.0873 31.0086 48.2073 30.8636 48.3673 30.8636H51.7223C51.8823 30.8636 52.0023 31.0073 51.9773 31.1661ZM56.1448 29.2786C56.1448 29.6186 55.8698 29.8936 55.5298 29.8936H44.5598C44.2198 29.8936 43.9448 29.6186 43.9448 29.2786V28.8048C43.9448 28.3948 44.0786 27.9973 44.3261 27.6711L44.8673 26.9573C45.2811 26.4123 45.5273 25.7586 45.5761 25.0761L45.7498 22.6436C45.8873 20.7148 47.2811 19.1598 49.0961 18.7511C49.0948 18.7161 49.0923 18.6811 49.0923 18.6448C49.0923 17.7723 49.5186 17.0648 50.0436 17.0648C50.5686 17.0648 50.9948 17.7723 50.9948 18.6448C50.9948 18.6811 50.9936 18.7161 50.9911 18.7511C52.8061 19.1598 54.1998 20.7148 54.3373 22.6436L54.5111 25.0761C54.5598 25.7586 54.8061 26.4123 55.2198 26.9573L55.7611 27.6711C56.0086 27.9973 56.1423 28.3961 56.1423 28.8048V29.2786H56.1448Z" fill="#25758A"/>
<path d="M32.625 28.1413L31.0888 18.6388C30.62 15.7413 28.1188 13.6113 25.1838 13.6113H23.875C22.11 13.6113 20.6538 14.9338 20.4425 16.6413H25.4375C25.6788 16.6413 25.875 16.8376 25.875 17.0788C25.875 17.3201 25.6788 17.5163 25.4375 17.5163H20.415V23.4851H27.4875C27.7288 23.4851 27.925 23.6813 27.925 23.9226C27.925 24.1638 27.7288 24.3601 27.4875 24.3601H20.415V28.7713C20.415 30.6376 21.9275 32.1501 23.7938 32.1501H29.2113C31.3413 32.1513 32.965 30.2438 32.625 28.1413Z" fill="#A7E8E0"/>
<path d="M25.5288 43.2311C25.4325 43.2311 25.335 43.1999 25.2538 43.1336L2.01502 24.3336C1.82752 24.1811 1.79752 23.9061 1.95002 23.7186C2.10252 23.5311 2.37752 23.5011 2.56502 23.6536L25.8038 42.4549C25.9913 42.6074 26.0025 42.8424 25.85 43.0299C25.7638 43.1361 25.6563 43.2311 25.5288 43.2311Z" fill="#25758A"/>
<path d="M32.6825 43.2311C32.555 43.2311 32.5512 43.0973 32.465 42.9911C32.3125 42.8036 32.2187 42.6061 32.4075 42.4536L40.9775 35.5198C41.165 35.3686 41.4412 35.3973 41.5925 35.5848C41.745 35.7723 41.715 36.0486 41.5275 36.1998L32.9575 43.1336C32.8762 43.1998 32.7787 43.2311 32.6825 43.2311Z" fill="#25758A"/>
<path d="M53.4113 62.2665H4.8C3.015 62.2665 1.5625 60.814 1.5625 59.029V25.3553C1.5625 24.2078 2.07375 23.1353 2.96625 22.414L10.43 16.3753C10.6175 16.224 10.8938 16.2528 11.045 16.4403C11.1975 16.6278 11.1675 16.904 10.98 17.0553L3.51625 23.094C2.83 23.649 2.4375 24.4728 2.4375 25.3553V59.029C2.4375 60.3315 3.4975 61.3915 4.8 61.3915H53.4113C54.7138 61.3915 55.7738 60.3315 55.7738 59.029V36.8978C55.7738 36.6565 55.97 36.4603 56.2113 36.4603C56.4525 36.4603 56.6488 36.6565 56.6488 36.8978V59.0303C56.6488 60.8153 55.1963 62.2665 53.4113 62.2665Z" fill="#25758A"/>
<path d="M37.795 9.29758C37.6988 9.29758 37.6013 9.26633 37.52 9.20008L29.58 2.77633C29.305 2.55383 28.905 2.55383 28.63 2.77633L20.69 9.20008C20.5025 9.35133 20.2263 9.32258 20.075 9.13508C19.9225 8.94758 19.9525 8.67133 20.14 8.52008L28.08 2.09633C28.6738 1.61633 29.5363 1.61633 30.13 2.09633L38.07 8.52008C38.2575 8.67258 38.2875 8.94758 38.135 9.13508C38.0488 9.24258 37.9225 9.29758 37.795 9.29758Z" fill="#25758A"/>
<path d="M23.6689 8.85986L26.4327 6.62361C28.9402 4.59486 32.5239 4.59486 35.0314 6.62361L37.7952 8.85986H23.6689Z" fill="#25758A"/>
<path d="M7.33627 28.1563L10.705 30.8013L10.5663 19.8301L7.29502 22.4776C5.48127 23.9451 5.50127 26.7163 7.33627 28.1563Z" fill="#25758A"/>
<path d="M55.3015 61.5313C55.2052 61.5313 55.1077 61.5001 55.0265 61.4338L29.9227 41.1238C29.449 40.7413 28.7627 40.7413 28.289 41.1238L5.34773 59.6838C5.16023 59.8351 4.88398 59.8063 4.73273 59.6188C4.58023 59.4313 4.61023 59.1551 4.79773 59.0038L27.7377 40.4438C28.5302 39.8026 29.6802 39.8026 30.4727 40.4438L55.5777 60.7538C55.7652 60.9063 55.7952 61.1813 55.6427 61.3688C55.5552 61.4763 55.429 61.5313 55.3015 61.5313Z" fill="#25758A"/>
<path d="M10.7051 31.2386C10.4638 31.2386 10.2676 31.0424 10.2676 30.8011V10.6124C10.2676 9.40486 11.2501 8.42236 12.4576 8.42236H45.7526C46.9601 8.42236 47.9426 9.40486 47.9426 10.6124V11.4349C47.9426 11.6761 47.7463 11.8724 47.5051 11.8724C47.2638 11.8724 47.0676 11.6761 47.0676 11.4349V10.6124C47.0676 9.88736 46.4776 9.29736 45.7526 9.29736H12.4576C11.7326 9.29736 11.1426 9.88736 11.1426 10.6124V30.8011C11.1426 31.0424 10.9476 31.2386 10.7051 31.2386Z" fill="#25758A"/>
<path d="M38.7152 16.6577H18.2539C18.0127 16.6577 17.8164 16.4615 17.8164 16.2202C17.8164 15.979 18.0127 15.7827 18.2539 15.7827H38.7152C38.9564 15.7827 39.1527 15.979 39.1527 16.2202C39.1527 16.4615 38.9564 16.6577 38.7152 16.6577Z" fill="#25758A"/>
<path d="M36.1627 23.4951H18.2539C18.0127 23.4951 17.8164 23.2989 17.8164 23.0576C17.8164 22.8164 18.0127 22.6201 18.2539 22.6201H36.1627C36.4039 22.6201 36.6002 22.8164 36.6002 23.0576C36.6002 23.2989 36.4039 23.4951 36.1627 23.4951Z" fill="#25758A"/>
<path d="M36.5489 30.3311H18.2539C18.0127 30.3311 17.8164 30.1348 17.8164 29.8936C17.8164 29.6523 18.0127 29.4561 18.2539 29.4561H36.5502C36.7914 29.4561 36.9877 29.6523 36.9877 29.8936C36.9877 30.1348 36.7914 30.3311 36.5489 30.3311Z" fill="#25758A"/>
</svg>
