<svg width="30" height="34" viewBox="0 0 30 34" fill="none" xmlns="http://www.w3.org/2000/svg">
<path d="M16.5128 3.09091C22.3273 3.09091 27.0028 7.94364 27.0028 13.9091C27.0028 18.2364 24.5602 21.93 21.0085 23.6609V30.9091H10.5185V26.2727H9.01989C7.35647 26.2727 6.02273 24.8973 6.02273 23.1818V18.5455H3.77486C3.14546 18.5455 2.7858 17.7727 3.14546 17.2936L6.02273 13.3836C6.15477 10.6069 7.31785 7.98906 9.27086 6.07278C11.2239 4.1565 13.817 3.08876 16.5128 3.09091ZM16.5128 0C9.63431 0 3.93971 5.28545 3.11549 12.2091L0.777704 15.4545H0.732747L0.702775 15.5009C-0.121443 16.6755 -0.226344 18.2209 0.418045 19.5036C0.957534 20.57 1.91662 21.3118 3.02557 21.5436V23.1818C3.02557 26.0409 4.94375 28.4673 7.52131 29.1627V34H24.0057V25.5C27.7521 22.9191 30 18.6382 30 13.9091C30 6.22818 23.9457 0 16.5128 0ZM22.5071 12.1009C22.5071 14.4739 20.481 16.3706 17.4092 19.2463L17.382 19.2718L16.5128 20.0909L15.6436 19.2718L15.6163 19.2463C12.5445 16.3706 10.5185 14.4739 10.5185 12.1009C10.5185 10.2464 11.9571 8.71636 13.7554 8.70091H13.8153C14.8494 8.70091 15.8384 9.18 16.5128 9.98364C17.1871 9.18 18.1762 8.70091 19.2102 8.70091C21.0085 8.68546 22.5071 10.1845 22.5071 12.0391V12.1009Z" fill="#25434E"/>
<path d="M16.5128 3.09091C22.3273 3.09091 27.0028 7.94364 27.0028 13.9091C27.0028 18.2364 24.5602 21.93 21.0085 23.6609V30.9091H10.5185V26.2727H9.01989C7.35647 26.2727 6.02273 24.8973 6.02273 23.1818V18.5455H3.77486C3.14546 18.5455 2.7858 17.7727 3.14546 17.2936L6.02273 13.3836C6.15477 10.6069 7.31785 7.98906 9.27086 6.07278C11.2239 4.1565 13.817 3.08876 16.5128 3.09091ZM16.5128 0C9.63431 0 3.93971 5.28545 3.11549 12.2091L0.777704 15.4545H0.732747L0.702775 15.5009C-0.121443 16.6755 -0.226344 18.2209 0.418045 19.5036C0.957534 20.57 1.91662 21.3118 3.02557 21.5436V23.1818C3.02557 26.0409 4.94375 28.4673 7.52131 29.1627V34H24.0057V25.5C27.7521 22.9191 30 18.6382 30 13.9091C30 6.22818 23.9457 0 16.5128 0ZM22.5071 12.1009C22.5071 14.4739 20.481 16.3706 17.4092 19.2463L17.382 19.2718L16.5128 20.0909L15.6436 19.2718L15.6163 19.2463C12.5445 16.3706 10.5185 14.4739 10.5185 12.1009C10.5185 10.2464 11.9571 8.71636 13.7554 8.70091H13.8153C14.8494 8.70091 15.8384 9.18 16.5128 9.98364C17.1871 9.18 18.1762 8.70091 19.2102 8.70091C21.0085 8.68546 22.5071 10.1845 22.5071 12.0391V12.1009Z" stroke="#25434E"/>
</svg>
