<svg width="177" height="19" viewBox="0 0 177 19" fill="none" xmlns="http://www.w3.org/2000/svg">
<path fill-rule="evenodd" clip-rule="evenodd" d="M49.5233 0.229044C47.2952 0.750586 45.7093 1.66109 41.7205 4.52073C34.3066 9.89969 33.5333 9.98368 25.8179 5.99697C20.715 3.34948 19.9461 3.09312 17.0321 2.91632C13.1744 2.65555 9.83225 3.61025 5.54203 6.21354C1.64064 8.55606 -0.159346 10.2886 0.0110399 11.5483C0.225114 13.1527 1.38285 12.9361 5.45462 10.4654C12.4841 6.17376 16.9011 5.69641 22.3447 8.68865C29.846 12.724 30.2741 12.8964 32.8911 12.8964C35.8925 12.8522 37.4347 12.114 43.9486 7.69418C48.1908 4.79034 49.0515 4.35277 51.1092 4.18039C53.9796 3.96382 55.7795 4.87431 60.0697 8.82124C66.5444 14.7615 70.2274 14.8941 78.502 9.47097C86.4752 4.22461 87.847 4.1804 95.4794 9.08202C103.754 14.3726 107.184 14.461 116.826 9.42675C125.271 5.09088 126.044 5.04668 132.13 8.82124C137.233 11.9859 139.762 12.8963 143.318 12.9405C147.132 12.9405 149.535 12.1185 156.823 8.34391C161.794 5.74062 162.996 5.26326 165.438 5.09088C168.824 4.78591 170.925 5.39585 172.681 7.21683C173.752 8.25549 173.966 8.86543 173.966 10.5582C173.966 12.8566 173.193 14.2002 171.393 15.1549C168.819 16.4985 166.849 15.588 167.019 13.1615C167.146 11.6455 166.246 11.4687 164.962 12.7726C163.76 13.988 163.848 16.2864 165.088 17.4576C166.718 19.0179 168.688 19.367 171.174 18.6289C173.616 17.935 175.29 16.3748 176.277 13.988C178.894 7.74279 174.132 1.9307 166.417 1.9307C162.646 1.9307 161.1 2.45225 154.026 6.05001C147.766 9.25882 144.808 10.0411 141.597 9.30301C139.155 8.73727 138.727 8.52069 134.31 5.61684C127.193 0.892023 124.921 0.847845 115.834 5.44449C110.648 8.04778 109.276 8.56489 106.917 8.74168C103.658 9.04665 102.159 8.52511 97.8298 5.70525C88.5285 -0.323431 85.9989 -0.279219 75.754 6.35498C69.3667 10.5627 67.5667 10.3461 61.5639 4.75057C57.5751 1.02022 53.1189 -0.668173 49.5189 0.242316L49.5233 0.229044Z" fill="#EAF5F6"/>
</svg>
