<svg width="173" height="20" viewBox="0 0 173 20" fill="none" xmlns="http://www.w3.org/2000/svg">
<path id="Vector" fill-rule="evenodd" clip-rule="evenodd" d="M48.4041 0.729044C46.2264 1.25059 44.6763 2.16109 40.7777 5.02073C33.5313 10.3997 32.7755 10.4837 25.2344 6.49697C20.2469 3.84948 19.4954 3.59312 16.6472 3.41632C12.8767 3.15555 9.61005 4.11025 5.41679 6.71354C1.60356 9.05606 -0.155745 10.7886 0.0107904 12.0483C0.220027 13.6527 1.35159 13.4361 5.33135 10.9654C12.202 6.67376 16.5191 6.19641 21.8397 9.18865C29.1715 13.224 29.59 13.3964 32.1478 13.3964C35.0814 13.3522 36.5887 12.614 42.9555 8.19418C47.1017 5.29034 47.943 4.85277 49.9542 4.68039C52.7597 4.46382 54.519 5.37431 58.7122 9.32124C65.0406 15.2615 68.6403 15.3941 76.7279 9.97097C84.5209 4.72461 85.8617 4.6804 93.3216 9.58202C101.409 14.8726 104.761 14.961 114.185 9.92675C122.44 5.59088 123.195 5.54668 129.144 9.32124C134.131 12.4859 136.604 13.3963 140.08 13.4405C143.807 13.4405 146.156 12.6185 153.278 8.84391C158.138 6.24062 159.312 5.76326 161.699 5.59088C165.009 5.28591 167.062 5.89585 168.779 7.71683C169.825 8.75549 170.035 9.36543 170.035 11.0582C170.035 13.3566 169.279 14.7002 167.519 15.6549C165.004 16.9985 163.078 16.088 163.245 13.6615C163.369 12.1455 162.489 11.9687 161.234 13.2726C160.059 14.488 160.145 16.7864 161.358 17.9576C162.95 19.5179 164.876 19.867 167.306 19.1289C169.693 18.435 171.328 16.8748 172.293 14.488C174.851 8.24279 170.197 2.4307 162.656 2.4307C158.971 2.4307 157.459 2.95225 150.546 6.55001C144.427 9.75882 141.536 10.5411 138.397 9.80301C136.01 9.23727 135.592 9.02069 131.275 6.11684C124.319 1.39202 122.098 1.34784 113.216 5.94449C108.148 8.54778 106.807 9.06489 104.501 9.24168C101.315 9.54665 99.8507 9.02511 95.619 6.20525C86.5279 0.176569 84.0555 0.220781 74.042 6.85498C67.7991 11.0627 66.0398 10.8461 60.1726 5.25057C56.274 1.52022 51.9184 -0.168173 48.3999 0.742316L48.4041 0.729044Z" fill="#25434E"/>
</svg>
