<svg width="58" height="59" viewBox="0 0 58 59" fill="none" xmlns="http://www.w3.org/2000/svg">
<g id="Group">
<path id="Vector" fill-rule="evenodd" clip-rule="evenodd" d="M21.2722 45.1434C17.0607 41.5377 12.359 39.2442 7.52537 36.6121C6.58131 36.0982 5.38681 36.4183 4.85347 37.324C4.31983 38.2302 4.65516 39.3833 5.59891 39.8977C10.1824 42.3935 14.6696 44.5395 18.6705 47.9635C19.4796 48.6562 20.7212 48.5869 21.4366 47.8071C22.1574 47.0309 22.0816 45.8356 21.2722 45.1434Z" fill="#145566"/>
<path id="Vector_2" fill-rule="evenodd" clip-rule="evenodd" d="M35.9886 40.1722C32.8697 28.6458 27.3908 16.4946 20.6106 6.50188C20.018 5.62975 18.8017 5.38348 17.8983 5.95392C16.9949 6.52435 16.7381 7.69353 17.3307 8.56566C23.8859 18.2279 29.185 29.9799 32.1964 41.1231C32.4707 42.1314 33.5421 42.7363 34.5871 42.4732C35.6322 42.2101 36.263 41.1805 35.9886 40.1722Z" fill="#145566"/>
<path id="Vector_3" fill-rule="evenodd" clip-rule="evenodd" d="M45.1306 42.3004C50.2471 35.8082 52.1857 27.4216 52.7905 19.4614C52.8659 18.4211 52.0547 17.5168 50.9805 17.4423C49.9003 17.3654 48.9619 18.1478 48.8807 19.1851C48.3325 26.4361 46.6685 34.1062 42.0096 40.0196C41.3556 40.849 41.5257 42.034 42.385 42.662C43.2441 43.2905 44.477 43.1293 45.1306 42.3004Z" fill="#145566"/>
</g>
</svg>
