<svg width="73" height="135" viewBox="0 0 73 135" fill="none" xmlns="http://www.w3.org/2000/svg">
<path fill-rule="evenodd" clip-rule="evenodd" d="M0.324689 0.341463C-0.514124 1.13454 0.225959 3.5634 3.08779 9.61616C9.90246 23.7539 19.431 37.7375 29.4529 48.1026L33.9923 52.8666L30.9824 57.2781C25.204 65.9579 20.5658 77.5127 17.9507 89.6678C15.7796 99.5868 15.829 111.935 18.0494 117.789C18.2468 118.334 16.7172 117.145 14.6448 115.212C10.9442 111.692 9.40904 110.85 7.53404 111.197C5.26431 111.593 6.3005 113.378 12.8191 120.521C16.4211 124.486 20.0285 128.953 20.966 130.688C21.9529 132.423 23.0384 134.108 23.4331 134.405C24.4693 135.297 26.6897 135.149 27.3805 134.207C27.7259 133.761 28.1206 130.44 28.2687 126.122C28.6634 117.69 29.2555 114.815 32.0186 107.821C33.1535 105.045 34.0417 102.412 34.0417 101.966C34.0417 99.3389 28.7566 103.85 26.6842 108.316C25.8948 110.001 24.9572 112.728 24.6119 114.418C24.2665 116.153 23.8224 117.541 23.6251 117.541C23.477 117.541 22.8849 116.153 22.3915 114.418C20.9606 109.506 21.1579 99.6364 22.8849 91.8047C24.6612 83.6701 27.1283 76.279 30.0943 70.083C32.5614 64.8729 37.6491 56.5456 38.3892 56.5456C38.5866 56.5456 40.2149 57.3387 42.0406 58.2805C43.8169 59.2223 46.2346 60.3623 47.375 60.7589C57.3969 64.3277 66.6786 61.2545 71.0755 53.0208C72.4078 50.4433 72.7532 49.1545 72.9506 46.0758C73.1973 41.5156 72.5558 39.23 70.2367 36.6525C66.9801 33.0341 61.0536 32.3401 54.8311 34.8681C50.7357 36.5534 46.7335 39.3787 41.5526 44.341L36.9583 48.7525L33.7511 45.3323C26.1963 37.1977 17.2599 24.4534 9.60642 10.9104C4.22267 1.43749 3.23586 0 1.7556 0C1.16349 0 0.472715 0.148705 0.324689 0.346976V0.341463ZM66.3826 39.3732C69.6392 41.5541 70.33 46.3677 67.9615 50.8784C63.8662 58.9138 54.3377 60.2026 44.3103 54.1002L41.5471 52.415L42.83 50.7297C44.7543 48.1521 51.717 42.3473 54.8256 40.662C59.6172 38.134 63.762 37.6383 66.3771 39.3732H66.3826Z" fill="#25434E"/>
</svg>
