<svg width="35" height="35" viewBox="0 0 35 35" fill="none" xmlns="http://www.w3.org/2000/svg">
<g clip-path="url(#clip0_304_802)">
<path d="M0 30.4846V13.8073C0.203255 13.4813 0.506771 13.4046 0.873177 13.4065C3.74336 13.4147 6.61263 13.411 9.48281 13.411C9.61589 13.411 9.74896 13.411 9.91484 13.411V13.0065C9.91484 11.8569 9.92123 10.7064 9.91029 9.55674C9.90755 9.23715 10.0087 8.99061 10.2366 8.76872C10.84 8.18067 11.4397 7.58805 12.0194 6.97717C12.1424 6.8466 12.229 6.62927 12.2345 6.44939C12.2582 5.6988 12.2318 4.94639 12.25 4.19489C12.2573 3.87895 12.1862 3.64245 11.9401 3.41965C11.5609 3.0754 11.5773 2.76859 11.9474 2.39512C12.5964 1.7395 13.249 1.08753 13.9061 0.440125C14.0675 0.280329 14.2507 0.145187 14.4238 0C21.2826 0 28.1413 0 35 0V7.17715C34.8122 7.49491 34.5333 7.59079 34.1697 7.58988C30.7882 7.58075 27.4057 7.5844 24.0242 7.5844H23.6642L23.615 7.66932C24.006 8.04461 24.4207 8.39799 24.7762 8.80342C24.9393 8.99061 25.0578 9.27459 25.0724 9.52296C25.1125 10.2041 25.0861 10.8881 25.0861 11.572C25.0861 12.1728 25.0861 12.7728 25.0861 13.4101H25.519C28.3883 13.4101 31.2585 13.4138 34.1277 13.4056C34.4941 13.4046 34.7977 13.4813 35.0009 13.8064V30.4837C34.8806 30.6334 34.7731 30.796 34.6382 30.9311C33.4013 32.1739 32.1572 33.4093 30.9221 34.6558C30.6906 34.8895 30.4409 34.9991 30.1064 34.9991C21.7018 34.9936 13.2982 34.9936 4.89362 34.9991C4.56003 34.9991 4.31029 34.8895 4.07787 34.6558C2.86016 33.4258 1.63151 32.2068 0.411068 30.9795C0.260677 30.8279 0.136719 30.6499 0 30.4837L0 30.4846ZM1.18398 14.5963C1.17669 14.6912 1.16576 14.7679 1.16484 14.8446C1.16484 19.8458 1.16211 24.8461 1.17214 29.8472C1.17214 29.9933 1.26328 30.1732 1.36901 30.281C2.47188 31.4005 3.58294 32.5136 4.70495 33.6139C4.82526 33.7317 5.03398 33.8221 5.20169 33.8221C13.4048 33.8321 21.607 33.8321 29.8102 33.8221C29.9688 33.8221 30.1656 33.7399 30.2796 33.6285C31.4016 32.5273 32.5145 31.416 33.6137 30.2929C33.7376 30.1659 33.826 29.9431 33.827 29.7651C33.8379 24.8324 33.8361 19.8997 33.8361 14.9679C33.8361 14.8474 33.8361 14.7268 33.8361 14.5954H1.18398V14.5963ZM33.8251 1.18797H25.1061V6.3946H33.8251V1.18797ZM23.8939 6.41104V1.16423H23.4582C20.7603 1.16423 18.0633 1.17154 15.3654 1.15601C14.9835 1.15327 14.7064 1.24459 14.4448 1.53222C14.0128 2.00704 13.5361 2.44169 13.1059 2.86538C13.8305 3.58766 14.5122 4.26794 15.1885 4.94182C15.4629 4.67154 15.7609 4.37934 16.1191 4.02779C15.8521 3.78672 15.5559 3.57944 15.3453 3.30551C15.2305 3.15575 15.1895 2.86812 15.2496 2.68823C15.2997 2.53757 15.544 2.36864 15.7072 2.36225C15.8913 2.35586 16.1191 2.48369 16.2632 2.62158C16.8893 3.21784 17.4854 3.84607 18.1107 4.44326C18.2337 4.56105 18.4379 4.64962 18.6065 4.65236C19.7331 4.67062 20.8596 4.65875 21.9871 4.66332C22.5367 4.66514 22.7482 4.88247 22.7536 5.43217C22.7573 5.75633 22.7536 6.08049 22.7536 6.41195H23.8911L23.8939 6.41104ZM13.4303 9.92656V13.3882H21.5651V9.92656H13.4303ZM12.219 13.3946V8.38703C11.8553 8.77055 11.5482 9.07279 11.2702 9.39969C11.1708 9.51565 11.0897 9.69006 11.0879 9.83981C11.0715 10.8187 11.0797 11.7975 11.0797 12.7764C11.0797 12.9773 11.0797 13.1791 11.0797 13.3946H12.2199H12.219ZM23.9212 13.3946C23.9212 12.14 23.9212 10.9237 23.9194 9.70741C23.9194 9.65353 23.9112 9.58323 23.8775 9.54944C23.5275 9.18876 23.172 8.83355 22.7764 8.43634V13.3955H23.9203L23.9212 13.3946ZM14.5779 8.73037C14.5779 7.87112 14.5779 7.03196 14.576 6.19371C14.576 6.13984 14.5678 6.06953 14.5341 6.03483C14.185 5.67506 13.8296 5.32077 13.4303 4.91899V8.73037H14.5779ZM15.7473 8.72398H16.8857V4.89799C16.4865 5.31438 16.1565 5.65406 15.8348 6.00196C15.7865 6.05401 15.7518 6.14166 15.7518 6.21289C15.7464 7.04018 15.7482 7.86838 15.7482 8.72398H15.7473ZM18.087 8.73219H19.2318V5.82938C18.8964 5.82938 18.581 5.81933 18.2675 5.83759C18.2036 5.84125 18.0952 5.95356 18.0943 6.01657C18.0824 6.91234 18.0861 7.80903 18.0861 8.73128L18.087 8.73219ZM20.4449 5.85129V8.72124H21.5697V5.85129H20.4449Z" fill="#25434E"/>
<path d="M33.8251 1.18796V6.39458H25.1061V1.18796H33.8251Z" fill="#145566"/>
<path d="M23.8939 6.41102H22.7564C22.7564 6.07956 22.7592 5.7554 22.7564 5.43124C22.75 4.88154 22.5386 4.66513 21.9899 4.66239C20.8633 4.65783 19.7359 4.6697 18.6093 4.65143C18.4407 4.64869 18.2365 4.55921 18.1135 4.44233C17.4882 3.84515 16.893 3.21692 16.2659 2.62065C16.1219 2.48368 15.8941 2.35493 15.7099 2.36132C15.5468 2.3668 15.3025 2.53664 15.2524 2.68731C15.1922 2.86719 15.2323 3.15391 15.3481 3.30458C15.5577 3.57851 15.8549 3.78579 16.1219 4.02686C15.7637 4.37841 15.4666 4.67152 15.1913 4.94089C14.515 4.26701 13.8333 3.58765 13.1086 2.86445C13.5389 2.44076 14.0155 2.00612 14.4476 1.53129C14.7092 1.24366 14.9853 1.15326 15.3681 1.15509C18.0652 1.17152 20.7631 1.1633 23.461 1.1633H23.8967V6.41011L23.8939 6.41102Z" fill="#145566"/>
<path d="M14.577 8.72947H13.4294V4.91809C13.8287 5.31986 14.1841 5.67416 14.5332 6.03393C14.5669 6.06863 14.5751 6.13894 14.5751 6.19281C14.5779 7.03106 14.577 7.87022 14.577 8.72947Z" fill="#145566"/>
<path d="M15.7473 8.72396C15.7473 7.86837 15.7454 7.04017 15.7509 6.21288C15.7509 6.14165 15.7855 6.05399 15.8338 6.00195C16.1556 5.65496 16.4855 5.31528 16.8847 4.89798V8.72396H15.7463H15.7473Z" fill="#145566"/>
<path d="M18.087 8.73129C18.087 7.80903 18.0833 6.91326 18.0952 6.01657C18.0952 5.95356 18.2045 5.84125 18.2683 5.8376C18.5819 5.81842 18.8972 5.82938 19.2327 5.82938V8.7322H18.0879L18.087 8.73129Z" fill="#145566"/>
<path d="M20.4449 5.85037H21.5697V8.72032H20.4449V5.85037Z" fill="#145566"/>
<path d="M23.0918 20.2814C23.2459 20.1745 23.368 20.0933 23.4856 20.0065C23.7125 19.8376 23.9504 19.7627 24.2129 19.9207C24.4763 20.0805 24.5164 20.3298 24.4736 20.6065C24.4189 20.9553 24.377 21.3068 24.2959 21.6492C24.2275 21.9387 24.2904 22.167 24.4535 22.4126C25.1891 23.5221 25.9073 24.6434 26.631 25.7619C26.8962 26.1719 26.8917 26.35 26.6046 26.7527C25.7186 27.9945 24.8263 29.2318 23.9495 30.4801C23.7308 30.7914 23.4683 30.9202 23.0882 30.9147C21.9498 30.8992 20.8104 30.9092 19.6711 30.9092C19.5481 30.9092 19.425 30.9092 19.2509 30.9092C19.2509 31.1202 19.2947 31.3128 19.24 31.4717C19.1707 31.6708 19.0586 31.8963 18.8946 32.0104C18.6858 32.1556 18.4343 32.068 18.2401 31.8899C18.19 31.8433 18.1326 31.8013 18.0952 31.7456C17.5948 31.0088 16.8994 30.8471 16.038 30.89C14.6636 30.9585 13.2827 30.8992 11.9046 30.9138C11.5218 30.9184 11.2647 30.7805 11.0478 30.4709C10.1774 29.2318 9.29143 28.0046 8.41187 26.7719C8.10198 26.3372 8.10107 26.1865 8.3982 25.7254C9.20029 24.4827 10.0033 23.2399 10.8272 21.9634C10.6449 21.8273 10.4699 21.6903 10.2877 21.5643C10.0479 21.3981 9.87021 21.1972 9.93674 20.884C10.006 20.5553 10.2594 20.4403 10.5611 20.3928C10.8418 20.349 11.1216 20.2649 11.4024 20.2595C11.8535 20.2503 12.1024 20.0221 12.3311 19.6541C13.0576 18.4844 13.8278 17.342 14.5651 16.1787C14.7647 15.8637 15.0163 15.7368 15.3836 15.7395C16.7955 15.7505 18.2082 15.7514 19.621 15.7395C20.0056 15.7359 20.2517 15.8829 20.4568 16.2079C21.247 17.4589 22.0582 18.6962 22.8621 19.938C22.9296 20.0421 23.0007 20.1444 23.0936 20.2823L23.0918 20.2814ZM19.2464 27.411C19.7741 27.411 20.2617 27.3471 20.7257 27.4247C21.6143 27.5745 22.1548 27.2129 22.5167 26.4377C22.5969 26.266 22.6042 26.1665 22.5058 26.0149C22.1776 25.509 21.8532 25.0004 21.5496 24.479C21.4166 24.2498 21.2561 24.1393 20.99 24.1128C20.5944 24.0736 20.2034 23.9877 19.8115 23.9193C19.5444 23.8727 19.3384 23.7449 19.2774 23.4636C19.2181 23.1888 19.3239 22.9751 19.5517 22.8162C19.7641 22.6674 19.9737 22.514 20.1715 22.3724C20.1651 22.3167 20.1697 22.2912 20.1587 22.2738C19.7641 21.6346 19.3722 20.9936 18.9702 20.3599C18.7341 19.9883 18.5573 19.4851 18.2146 19.3034C17.8664 19.119 17.3469 19.2404 16.9039 19.2623C16.7745 19.2687 16.6041 19.3628 16.5339 19.4705C16.1301 20.0896 15.781 20.7471 15.3535 21.3479C14.9789 21.8748 14.814 22.3962 15.0254 23.0262C15.1002 23.2499 15.1029 23.4965 15.1466 23.7312C15.1968 24.0024 15.1357 24.2352 14.9005 24.3904C14.6645 24.5466 14.4266 24.511 14.1996 24.3539C14.0456 24.2471 13.8888 24.1421 13.7211 24.027C13.4541 24.4598 13.2071 24.8543 12.9664 25.2542C12.7686 25.5839 12.4214 25.9236 12.4314 26.2496C12.4414 26.5792 12.796 26.9079 13.0266 27.2175C13.0995 27.3152 13.2563 27.4028 13.3757 27.4037C14.5943 27.4174 15.8138 27.4165 17.0324 27.4047C17.1619 27.4037 17.3168 27.3362 17.4153 27.2485C17.7033 26.9901 17.9457 26.6769 18.252 26.4459C18.4078 26.3281 18.6949 26.2541 18.8617 26.319C19.0295 26.3838 19.1616 26.6294 19.2354 26.8239C19.2956 26.9828 19.2473 27.1828 19.2473 27.4129L19.2464 27.411ZM12.0149 21.336C12.2983 21.7077 12.1871 22.0218 11.9693 22.3523C11.1745 23.5586 10.3998 24.7776 9.60771 25.9857C9.48922 26.1655 9.48831 26.2879 9.61591 26.4641C10.3524 27.4759 11.0788 28.4949 11.7989 29.5185C11.9173 29.6875 12.0459 29.7486 12.2491 29.745C12.8862 29.7331 13.5242 29.7404 14.1614 29.7404H16.0663C15.6625 29.3359 15.6844 28.9624 16.0745 28.5753C14.9981 28.5753 14.0073 28.5643 13.0175 28.5808C12.6565 28.5871 12.4186 28.4538 12.2309 28.1525C11.9237 27.6603 11.602 27.1773 11.2675 26.7034C11.046 26.3911 11.0542 26.1135 11.2574 25.793C11.818 24.91 12.3658 24.0179 12.9045 23.1212C13.0977 22.7989 13.3073 22.5386 13.774 22.6217C13.6856 22.0912 13.6045 21.6045 13.5188 21.0877C13.0065 21.1717 12.528 21.2502 12.0149 21.3351V21.336ZM13.5671 19.8714C14.2407 19.8102 14.3336 19.8522 14.6189 20.3307C14.989 19.7317 15.3654 19.15 15.7117 18.551C15.9041 18.2177 16.1529 18.0652 16.5403 18.0771C17.1546 18.0963 17.7698 18.0954 18.3832 18.0771C18.767 18.0652 19.0176 18.2068 19.2181 18.5391C19.889 19.6477 20.5798 20.7452 21.2716 21.841C21.5013 22.2044 21.7447 22.5541 21.3537 22.9924C21.886 23.081 22.3535 23.1577 22.8503 23.2408C22.9378 22.7176 23.0207 22.2199 23.111 21.6803C22.6826 21.7515 22.4793 21.5059 22.2916 21.2137C21.4257 19.8641 20.5571 18.5163 19.6757 17.1768C19.5964 17.0562 19.4241 16.9257 19.292 16.9238C18.097 16.9047 16.9021 16.9101 15.7072 16.9174C15.6078 16.9174 15.4638 16.9594 15.4164 17.0325C14.8012 17.9593 14.1996 18.8943 13.5662 19.8714H13.5671ZM22.9268 24.49C23.214 24.952 23.481 25.3958 23.7627 25.8295C23.9541 26.1245 23.9486 26.3911 23.7472 26.6815C23.4035 27.1764 23.0709 27.6795 22.7464 28.1872C22.5705 28.463 22.3435 28.5853 22.0108 28.5808C20.9864 28.5671 19.9619 28.5689 18.9383 28.5798C18.6056 28.5835 18.3039 28.5506 18.1326 28.2657C17.809 28.5707 17.4973 28.8638 17.2002 29.1442C17.5046 29.4574 17.8035 29.7642 18.1235 30.0938C18.3103 29.7633 18.6184 29.7377 18.9502 29.7395C20.2134 29.7459 21.4767 29.7368 22.74 29.7477C22.9597 29.7496 23.09 29.6802 23.2149 29.5021C23.8611 28.5798 24.5192 27.6667 25.1736 26.7499C25.4209 26.4036 25.4267 26.0487 25.1909 25.6852C24.7899 25.068 24.3888 24.4516 23.9723 23.8106C23.7736 24.427 23.7289 24.4562 22.9268 24.4918V24.49Z" fill="#145566"/>
</g>
<defs>
<clipPath id="clip0_304_802">
<rect width="35" height="35" fill="white"/>
</clipPath>
</defs>
</svg>
