<svg width="27" height="27" viewBox="0 0 27 27" fill="none" xmlns="http://www.w3.org/2000/svg">
<path d="M26.0824 14.203C26.5153 13.9279 26.8237 13.4689 26.8903 12.9289C26.9076 12.7899 26.8085 12.664 26.6695 12.6466C26.5305 12.63 26.4045 12.7284 26.3872 12.8674C26.3097 13.4965 25.7726 13.9706 25.1377 13.9706C24.998 13.9706 24.8844 14.0843 24.8844 14.224C24.8844 14.3637 24.998 14.4773 25.1377 14.4773H25.2333C25.8746 14.4773 26.3966 14.9992 26.3966 15.6406V16.7619C26.3966 17.4033 25.8746 17.9252 25.2333 17.9252H24.2206C24.0808 17.9252 23.9672 18.0389 23.9672 18.1786C23.9672 18.3183 24.0808 18.4319 24.2206 18.4319H24.749C25.3904 18.4319 25.9123 18.9539 25.9123 19.5952V20.7165C25.9123 21.3579 25.3904 21.8798 24.749 21.8798H24.2206C24.0808 21.8798 23.9672 21.9935 23.9672 22.1332C23.9672 22.2729 24.0808 22.3865 24.2206 22.3865C24.859 22.3865 25.3809 22.9063 25.3838 23.5448L25.3889 24.6661C25.3904 24.9781 25.2702 25.2712 25.0501 25.492C24.8301 25.7128 24.5376 25.8344 24.2256 25.8344H12.3169C11.4794 25.8344 10.6505 25.6172 9.92086 25.2068L8.34134 24.3179C8.21973 24.2491 8.06481 24.2925 7.99605 24.4141C7.92728 24.5358 7.97071 24.6907 8.09232 24.7594L9.67185 25.6484C10.4775 26.1015 11.3918 26.3411 12.3162 26.3411H24.2249C24.6723 26.3411 25.0928 26.1667 25.4085 25.8496C25.7241 25.5325 25.8971 25.1112 25.8949 24.6639L25.8898 23.5426C25.8877 23.0424 25.664 22.5936 25.3122 22.2881C25.9564 22.0564 26.4183 21.439 26.4183 20.7158V19.5945C26.4183 19.0849 26.1888 18.6281 25.8276 18.3212C26.4552 18.0808 26.9018 17.4721 26.9018 16.7612V15.6406C26.9033 15.0297 26.5732 14.494 26.0824 14.203Z" fill="#25434E"/>
<path d="M8.2241 13.0794C8.95812 12.59 9.5879 11.9328 10.0461 11.1785L12.634 6.91331C13.1002 6.14526 13.3463 5.26502 13.3456 4.36739L13.3449 1.89314C13.3449 1.61734 13.4013 1.35023 13.5135 1.09831C13.7278 0.616205 14.2816 0.385284 14.7746 0.573495L14.8643 0.607518C15.7069 0.928201 16.3425 1.64123 16.5655 2.51424L16.5814 2.57722C17.0382 4.36739 17.1062 6.19811 16.7834 8.01724C16.6531 8.74981 16.5228 9.48022 16.4286 10.0094C16.3801 10.2808 16.454 10.5574 16.6306 10.768C16.8072 10.9794 17.0671 11.1003 17.3422 11.1003H20.6033C20.743 11.1003 20.8567 10.9866 20.8567 10.8469C20.8567 10.7072 20.743 10.5936 20.6033 10.5936H17.3422C17.217 10.5936 17.099 10.5385 17.0186 10.4423C16.9383 10.3467 16.905 10.2208 16.9267 10.0977C17.0215 9.56853 17.1518 8.8374 17.2821 8.10483C17.618 6.21403 17.5471 4.31165 17.0722 2.45054L17.0563 2.38828C16.7928 1.35529 16.0406 0.512689 15.0446 0.132647L14.9548 0.0986246C14.2099 -0.18514 13.3731 0.16305 13.0495 0.891282C12.9084 1.20835 12.8374 1.54495 12.8374 1.89242L12.8382 4.36667C12.8382 5.17163 12.6174 5.9614 12.1997 6.64981L9.61179 10.915C9.19193 11.6063 8.615 12.2086 7.94178 12.6574L7.23744 13.1272C7.15853 12.5604 6.67135 12.1217 6.08283 12.1217H1.16691C0.523371 12.1217 0 12.6451 0 13.2886V24.7036C0 25.3471 0.523371 25.8705 1.16691 25.8705H6.08356C6.72709 25.8705 7.25047 25.3471 7.25047 24.7036V13.728L8.2241 13.0794ZM1.16691 12.6291H6.08356C6.44767 12.6291 6.74374 12.9252 6.74374 13.2893V13.5912V14.2948H4.37663C2.60021 14.2948 1.08656 15.4183 0.505998 16.9927V13.2893C0.506722 12.9252 0.802792 12.6291 1.16691 12.6291ZM2.55171 22.9619C2.55171 22.369 3.03237 21.8877 3.62596 21.8877C4.21955 21.8877 4.70021 22.3683 4.70021 22.9619C4.70021 23.5555 4.21955 24.0362 3.62596 24.0362C3.03237 24.0362 2.55171 23.5548 2.55171 22.9619Z" fill="#25434E"/>
</svg>
