<svg width="40" height="40" viewBox="0 0 40 40" fill="none" xmlns="http://www.w3.org/2000/svg">
<path d="M20 28.3334C21.8409 28.3334 23.3333 26.841 23.3333 25C23.3333 23.1591 21.8409 21.6667 20 21.6667C18.159 21.6667 16.6666 23.1591 16.6666 25C16.6666 26.841 18.159 28.3334 20 28.3334Z" fill="white"/>
<path d="M7.5 22.5C7.5 19.3567 7.5 17.7867 8.47667 16.81C9.45333 15.8333 11.0233 15.8333 14.1667 15.8333H25.8333C28.9767 15.8333 30.5467 15.8333 31.5233 16.81C32.5 17.7867 32.5 19.3567 32.5 22.5V24.1667C32.5 28.88 32.5 31.2383 31.035 32.7017C29.5717 34.1667 27.2133 34.1667 22.5 34.1667H17.5C12.7867 34.1667 10.4283 34.1667 8.965 32.7017C7.5 31.2383 7.5 28.88 7.5 24.1667V22.5Z" stroke="white" stroke-width="3"/>
<path d="M27.5 15.8333V13.3333C27.5 11.3442 26.7098 9.43657 25.3033 8.03004C23.8968 6.62352 21.9891 5.83334 20 5.83334C18.0109 5.83334 16.1032 6.62352 14.6967 8.03004C13.2902 9.43657 12.5 11.3442 12.5 13.3333V15.8333" stroke="white" stroke-width="3" stroke-linecap="round"/>
</svg>
