<svg width="56" height="56" viewBox="0 0 56 56" fill="none" xmlns="http://www.w3.org/2000/svg">
<rect width="56" height="56" rx="10" fill="#145566"/>
<g clip-path="url(#clip0_304_776)">
<path d="M29.311 8C29.7088 8.04845 30.1078 8.09151 30.5034 8.14749C35.4918 8.85805 39.21 11.387 41.7059 15.5943C42.8238 17.4795 43.3972 19.5444 43.5217 21.7267C43.7217 25.2568 42.7338 28.4371 40.588 31.2858C40.3591 31.5905 40.1124 31.8865 39.8457 32.16C39.6456 32.3656 39.649 32.5228 39.7934 32.764C41.8037 36.1165 43.8017 39.4755 45.8042 42.8323C45.9631 43.0982 46.1042 43.3437 45.8975 43.6613C45.5864 44.1425 45.3075 44.261 44.7552 44.051C43.4806 43.5666 42.2115 43.0724 40.9391 42.5826C40.6035 42.4534 40.2668 42.3252 39.869 42.1734C39.7934 42.6428 39.7156 43.0842 39.6512 43.5267C39.4778 44.6991 39.31 45.8716 39.1389 47.044C39.1178 47.1861 39.0978 47.3293 39.0567 47.466C38.8944 48.0118 38.2243 48.1712 37.8165 47.7556C37.6987 47.635 37.612 47.4832 37.5243 47.3379C35.5184 43.9832 33.5126 40.6285 31.5168 37.2674C31.3713 37.0219 31.2446 36.9207 30.929 36.9767C29.261 37.2674 27.5874 37.2555 25.9194 36.9713C25.6316 36.9218 25.5205 37.0208 25.3916 37.2372C23.3947 40.5973 21.3889 43.952 19.3864 47.3088C19.1664 47.677 18.9519 48.07 18.4229 47.9914C17.8562 47.9074 17.8173 47.4531 17.754 47.0149C17.5217 45.4183 17.2772 43.8239 17.0317 42.1821C16.8627 42.2413 16.7161 42.2886 16.5727 42.3435C15.1392 42.8969 13.7068 43.4524 12.2722 44.0047C12.1477 44.0521 12.0199 44.0962 11.8899 44.1232C11.312 44.2437 10.8698 43.797 11.0342 43.249C11.0853 43.0767 11.1809 42.9141 11.2743 42.758C13.2401 39.4561 15.2025 36.152 17.1861 32.8598C17.3861 32.5271 17.3406 32.3365 17.0983 32.0588C14.2535 28.8053 13.0311 25.0307 13.6068 20.8191C14.3546 15.337 17.4717 11.4753 22.6357 9.17457C24.1314 8.50816 25.7339 8.15611 27.3863 8.06029C27.4908 8.05383 27.5941 8.02046 27.6975 8C28.2353 8 28.7731 8 29.311 8ZM42.0493 22.5298C42.0215 15.294 36.0196 9.45879 28.5276 9.4448C21.0433 9.4308 14.9825 15.3693 14.9947 22.6159C15.007 29.939 20.9944 35.6988 28.5242 35.7214C35.9541 35.744 42.0782 29.7355 42.0504 22.5298H42.0493ZM43.4706 41.9355C43.4895 41.9129 43.5095 41.8903 43.5284 41.8677C41.8626 39.0771 40.1968 36.2866 38.5588 33.5413C37.6365 34.1409 36.7908 34.7686 35.8707 35.2681C34.9417 35.772 33.9394 36.1477 32.9415 36.5923C34.5905 39.3775 36.2585 42.1917 37.9254 45.006C38.201 43.7205 38.3966 42.4738 38.5888 41.2271C38.6989 40.5144 39.1211 40.2743 39.8179 40.5402C40.8169 40.9203 41.8137 41.3046 42.8116 41.6868C43.0305 41.7708 43.2505 41.8526 43.4695 41.9355H43.4706ZM18.4729 33.5434C16.8327 36.292 15.1659 39.0836 13.4468 41.9614C13.6757 41.8849 13.8012 41.8494 13.9224 41.8031C15.0325 41.3778 16.1393 40.9472 17.2506 40.5252C17.8751 40.2883 18.3196 40.5273 18.4252 41.1604C18.5663 42.0076 18.693 42.8571 18.8274 43.7044C18.8952 44.1296 18.9663 44.5538 19.0352 44.9791C19.0641 44.9801 19.093 44.9812 19.1219 44.9823C20.7855 42.1724 22.4479 39.3624 24.0881 36.5913C23.0769 36.1413 22.0856 35.7698 21.1677 35.2714C20.2476 34.7718 19.4008 34.1452 18.4729 33.5434Z" fill="white"/>
<path d="M42.0495 22.5298C42.0772 29.7355 35.9531 35.744 28.5233 35.7214C20.9934 35.6988 15.006 29.939 14.9938 22.6159C14.9816 15.3693 21.0423 9.4308 28.5266 9.4448C36.0187 9.45879 42.0206 15.294 42.0483 22.5298H42.0495ZM28.5277 33.9439C35.013 33.931 40.2137 28.8914 40.2448 22.5912C40.2748 16.334 34.9752 11.1975 28.5055 11.2158C22.0191 11.2341 16.8062 16.2898 16.7962 22.5739C16.7851 28.8634 22.0414 33.9568 28.5288 33.9439H28.5277Z" fill="white"/>
<path d="M28.5278 33.9439C22.0403 33.9568 16.7841 28.8624 16.7952 22.5739C16.8063 16.2898 22.0181 11.2341 28.5044 11.2158C34.973 11.1975 40.2737 16.334 40.2437 22.5912C40.2137 28.8914 35.0119 33.9321 28.5267 33.9439H28.5278ZM18.2665 22.5922C18.2754 28.0409 22.876 32.497 28.5122 32.5142C34.1907 32.5314 38.7635 28.0797 38.7558 22.5384C38.7491 17.0779 34.1518 12.624 28.5178 12.6186C22.9193 12.6143 18.2576 17.149 18.2654 22.5922H18.2665Z" fill="white"/>
<path d="M28.6212 26.8663C27.7988 27.4445 26.9921 28.0258 26.1708 28.5878C25.2785 29.1983 24.2295 28.9711 23.6872 28.0635C23.4605 27.6835 23.4238 27.2776 23.5627 26.8599C23.8394 26.032 24.1084 25.2008 24.4062 24.3794C24.5029 24.1146 24.4751 23.9681 24.2228 23.8023C23.4783 23.3136 22.7437 22.8086 22.027 22.2822C21.4625 21.8677 21.2524 21.2885 21.4058 20.6199C21.5458 20.0116 21.9536 19.6187 22.5782 19.4572C22.7304 19.4173 22.896 19.4098 23.0549 19.4087C23.9283 19.4033 24.8018 19.3937 25.6752 19.412C25.9519 19.4173 26.0764 19.3388 26.1553 19.0804C26.4153 18.2331 26.682 17.388 26.9832 16.5547C27.311 15.6471 28.2422 15.2466 29.1712 15.5868C29.718 15.787 30.0124 16.2145 30.1847 16.7291C30.4458 17.5075 30.7036 18.288 30.9426 19.0718C31.0192 19.3215 31.1304 19.4206 31.4171 19.4141C32.3172 19.3937 33.2173 19.4023 34.1174 19.412C34.892 19.4206 35.4798 19.8631 35.7254 20.6027C35.9732 21.3477 35.7943 21.8795 35.1087 22.3662C34.4041 22.8657 33.6962 23.3609 32.9773 23.8389C32.7717 23.9757 32.7361 24.0973 32.8161 24.3202C33.1028 25.1179 33.3618 25.9243 33.6418 26.7242C33.8896 27.4326 33.6951 28.1249 33.1073 28.5824C32.5461 29.0185 31.8005 29.0594 31.157 28.6384C30.4347 28.1647 29.7402 27.6512 29.0323 27.1549C28.9023 27.0634 28.7723 26.974 28.62 26.8696L28.6212 26.8663ZM24.8151 20.8083C24.2906 20.8083 23.7672 20.7965 23.2438 20.8158C23.0893 20.8212 22.9393 20.9117 22.786 20.9633C22.8749 21.0818 22.9404 21.2282 23.0549 21.3143C23.8372 21.9086 24.6284 22.49 25.4174 23.0767C25.9464 23.4697 25.9897 23.601 25.7886 24.205C25.4763 25.1449 25.1552 26.0826 24.8529 27.0246C24.8107 27.1559 24.8529 27.3121 24.8562 27.4563C25.0007 27.4165 25.1685 27.41 25.2841 27.3304C26.1264 26.749 26.9565 26.1515 27.7922 25.5615C28.3167 25.1922 28.5767 25.1922 29.0979 25.5604C29.8902 26.1192 30.6759 26.6876 31.476 27.2367C31.6371 27.3476 31.846 27.3917 32.0327 27.4671C32.0227 27.2765 32.0527 27.0741 31.996 26.8976C31.7116 26.004 31.4037 25.1169 31.1048 24.2276C30.9081 23.6387 30.9759 23.4363 31.5015 23.0638C32.3472 22.4641 33.1962 21.8709 34.0385 21.2669C34.1474 21.1884 34.2208 21.0624 34.3097 20.959C34.1708 20.9084 34.0318 20.8158 33.8929 20.8148C32.885 20.8019 31.8771 20.8083 30.8703 20.8083C30.1547 20.8083 29.9469 20.663 29.728 20.0084C29.4302 19.1181 29.1401 18.2266 28.8323 17.3395C28.7767 17.1802 28.6534 17.0434 28.56 16.8959C28.46 17.0477 28.3245 17.1877 28.2667 17.3535C27.9533 18.2525 27.661 19.1579 27.3588 20.059C27.1565 20.6608 26.9509 20.8062 26.3064 20.8072C25.8097 20.8083 25.3119 20.8072 24.8151 20.8072V20.8083Z" fill="white"/>
<path d="M24.8139 20.8083C25.3107 20.8083 25.8085 20.8094 26.3052 20.8083C26.9498 20.8062 27.1553 20.6619 27.3576 20.0601C27.6599 19.1579 27.9521 18.2525 28.2655 17.3546C28.3233 17.1888 28.4588 17.0488 28.5589 16.897C28.6511 17.0445 28.7756 17.1812 28.8311 17.3406C29.1389 18.2277 29.429 19.1191 29.7268 20.0095C29.9457 20.6641 30.1524 20.8094 30.8692 20.8094C31.8771 20.8094 32.885 20.804 33.8918 20.8159C34.0318 20.818 34.1696 20.9095 34.3085 20.9601C34.2185 21.0635 34.1462 21.1894 34.0373 21.268C33.195 21.872 32.346 22.4652 31.5003 23.0649C30.9747 23.4374 30.9069 23.6398 31.1036 24.2287C31.4014 25.1179 31.7093 26.0051 31.9948 26.8986C32.0515 27.0752 32.0215 27.2776 32.0315 27.4682C31.8448 27.3928 31.6359 27.3487 31.4748 27.2378C30.6747 26.6887 29.889 26.1203 29.0967 25.5615C28.5755 25.1933 28.3155 25.1933 27.791 25.5626C26.9542 26.1515 26.1241 26.749 25.2829 27.3314C25.1684 27.4111 24.9995 27.4165 24.8551 27.4574C24.8517 27.3131 24.8095 27.157 24.8517 27.0257C25.154 26.0826 25.4751 25.1459 25.7874 24.2061C25.9885 23.6021 25.9441 23.4718 25.4162 23.0778C24.6284 22.491 23.836 21.9097 23.0537 21.3154C22.9393 21.2282 22.8737 21.0828 22.7848 20.9644C22.937 20.9127 23.0882 20.8223 23.2426 20.8169C23.766 20.7986 24.2905 20.8094 24.8139 20.8094V20.8083Z" fill="white"/>
</g>
<defs>
<clipPath id="clip0_304_776">
<rect width="35" height="40" fill="white" transform="translate(11 8)"/>
</clipPath>
</defs>
</svg>
