<svg width="40" height="40" viewBox="0 0 40 40" fill="none" xmlns="http://www.w3.org/2000/svg">
<path fill-rule="evenodd" clip-rule="evenodd" d="M6.72002 19.954C5.51623 21.7606 4.87393 23.8831 4.87402 26.054V28C4.87402 28.2652 4.76867 28.5196 4.58113 28.7071C4.39359 28.8947 4.13924 29 3.87402 29C3.60881 29 3.35445 28.8947 3.16692 28.7071C2.97938 28.5196 2.87402 28.2652 2.87402 28V26.056C2.87463 23.4889 3.63526 20.9795 5.06002 18.844L5.27602 18.52C5.34891 18.4108 5.4426 18.3169 5.55175 18.2439C5.66089 18.1708 5.78336 18.12 5.91216 18.0943C6.04095 18.0685 6.17355 18.0684 6.30238 18.094C6.43122 18.1195 6.55376 18.1701 6.66302 18.243C6.77228 18.3159 6.86612 18.4096 6.93917 18.5187C7.01222 18.6279 7.06306 18.7504 7.08878 18.8791C7.1145 19.0079 7.1146 19.1405 7.08908 19.2694C7.06356 19.3982 7.01291 19.5208 6.94002 19.63L6.72002 19.954Z" fill="#25758A"/>
<path fill-rule="evenodd" clip-rule="evenodd" d="M12.3599 16.73C10.1799 16.73 8.14593 17.818 6.93793 19.63L5.27393 18.522C6.05171 17.356 7.10514 16.3999 8.34084 15.7385C9.57653 15.077 10.9563 14.7306 12.3579 14.73H12.7979C13.0631 14.73 13.3175 14.8354 13.505 15.0229C13.6926 15.2104 13.7979 15.4648 13.7979 15.73C13.7979 15.9952 13.6926 16.2496 13.505 16.4371C13.3175 16.6247 13.0631 16.73 12.7979 16.73H12.3599ZM18.5159 19.93C19.4559 21.342 19.9579 22.998 19.9579 24.694H21.9579C21.9571 22.6042 21.3385 20.5613 20.1799 18.822L19.9799 18.522C19.9091 18.4085 19.8162 18.3104 19.7067 18.2335C19.5972 18.1565 19.4735 18.1024 19.3427 18.0741C19.2119 18.0459 19.0768 18.0442 18.9454 18.0691C18.8139 18.094 18.6888 18.1451 18.5774 18.2192C18.4661 18.2934 18.3707 18.3891 18.297 18.5008C18.2233 18.6125 18.1728 18.7378 18.1484 18.8693C18.124 19.0009 18.1263 19.136 18.1551 19.2667C18.1838 19.3973 18.2385 19.5209 18.3159 19.63L18.5159 19.93Z" fill="#25758A"/>
<path fill-rule="evenodd" clip-rule="evenodd" d="M12.8961 16.73C15.0741 16.73 17.1081 17.818 18.3161 19.63L19.9801 18.522C19.2023 17.356 18.1488 16.3999 16.9131 15.7385C15.6774 15.077 14.2976 14.7306 12.8961 14.73H12.4561C12.3247 14.73 12.1947 14.7559 12.0734 14.8061C11.952 14.8564 11.8418 14.93 11.7489 15.0229C11.6561 15.1158 11.5824 15.226 11.5322 15.3473C11.4819 15.4687 11.4561 15.5987 11.4561 15.73C11.4561 15.8613 11.4819 15.9914 11.5322 16.1127C11.5824 16.234 11.6561 16.3443 11.7489 16.4371C11.8418 16.53 11.952 16.6036 12.0734 16.6539C12.1947 16.7041 12.3247 16.73 12.4561 16.73H12.8961Z" fill="#25758A"/>
<path fill-rule="evenodd" clip-rule="evenodd" d="M12.5 14.5C13.0909 14.5 13.6761 14.3836 14.2221 14.1575C14.768 13.9313 15.2641 13.5998 15.682 13.182C16.0998 12.7641 16.4313 12.268 16.6575 11.7221C16.8836 11.1761 17 10.5909 17 10C17 9.40905 16.8836 8.82389 16.6575 8.27792C16.4313 7.73196 16.0998 7.23588 15.682 6.81802C15.2641 6.40016 14.768 6.06869 14.2221 5.84254C13.6761 5.6164 13.0909 5.5 12.5 5.5C11.3065 5.5 10.1619 5.97411 9.31802 6.81802C8.47411 7.66193 8 8.80653 8 10C8 11.1935 8.47411 12.3381 9.31802 13.182C10.1619 14.0259 11.3065 14.5 12.5 14.5ZM12.5 16.5C14.2239 16.5 15.8772 15.8152 17.0962 14.5962C18.3152 13.3772 19 11.7239 19 10C19 8.27609 18.3152 6.62279 17.0962 5.40381C15.8772 4.18482 14.2239 3.5 12.5 3.5C10.7761 3.5 9.12279 4.18482 7.90381 5.40381C6.68482 6.62279 6 8.27609 6 10C6 11.7239 6.68482 13.3772 7.90381 14.5962C9.12279 15.8152 10.7761 16.5 12.5 16.5ZM21.018 26.372C19.8131 28.179 19.1701 30.3022 19.17 32.474V34.542C19.17 34.8072 19.0646 35.0616 18.8771 35.2491C18.6896 35.4366 18.4352 35.542 18.17 35.542C17.9048 35.542 17.6504 35.4366 17.4629 35.2491C17.2754 35.0616 17.17 34.8072 17.17 34.542V32.474C17.1698 29.908 17.929 27.3993 19.352 25.264L19.618 24.864C19.7655 24.6433 19.9945 24.4903 20.2548 24.4385C20.5151 24.3868 20.7853 24.4405 21.006 24.588C21.2267 24.7355 21.3797 24.9645 21.4315 25.2248C21.4832 25.4851 21.4295 25.7553 21.282 25.976L21.018 26.372Z" fill="#25758A"/>
<path fill-rule="evenodd" clip-rule="evenodd" d="M26.84 23C25.7399 22.9998 24.6567 23.2714 23.6867 23.7906C22.7168 24.3098 21.8901 25.0605 21.28 25.976L19.618 24.866C20.4106 23.6769 21.4844 22.7019 22.7443 22.0275C24.0042 21.353 25.411 21.0001 26.84 21H27.288C27.5533 21 27.8076 21.1054 27.9951 21.2929C28.1827 21.4804 28.288 21.7348 28.288 22C28.288 22.2652 28.1827 22.5196 27.9951 22.7071C27.8076 22.8946 27.5533 23 27.288 23H26.84ZM33.214 26.372C34.4189 28.179 35.0619 30.3022 35.062 32.474V34.542C35.062 34.8072 35.1674 35.0616 35.3549 35.2491C35.5425 35.4366 35.7968 35.542 36.062 35.542C36.3273 35.542 36.5816 35.4366 36.7691 35.2491C36.9567 35.0616 37.062 34.8072 37.062 34.542V32.474C37.0616 29.9078 36.3017 27.3991 34.878 25.264L34.612 24.864C34.4646 24.6433 34.2355 24.4903 33.9752 24.4385C33.7149 24.3868 33.4447 24.4405 33.224 24.588C33.0034 24.7355 32.8503 24.9645 32.7986 25.2248C32.7468 25.4851 32.8006 25.7553 32.948 25.976L33.214 26.372Z" fill="#25758A"/>
<path fill-rule="evenodd" clip-rule="evenodd" d="M27.3901 23C28.4902 22.9998 29.5734 23.2714 30.5434 23.7906C31.5133 24.3098 32.34 25.0605 32.9501 25.976L34.6141 24.866C33.8213 23.6766 32.7472 22.7014 31.4869 22.027C30.2267 21.3526 28.8194 20.9998 27.3901 21H26.9401C26.6748 21 26.4205 21.1054 26.233 21.2929C26.0454 21.4804 25.9401 21.7348 25.9401 22C25.9401 22.2652 26.0454 22.5196 26.233 22.7071C26.4205 22.8946 26.6748 23 26.9401 23H27.3901Z" fill="#25758A"/>
<path fill-rule="evenodd" clip-rule="evenodd" d="M27 21C27.5909 21 28.1761 20.8836 28.7221 20.6575C29.268 20.4313 29.7641 20.0998 30.182 19.682C30.5998 19.2641 30.9313 18.768 31.1575 18.2221C31.3836 17.6761 31.5 17.0909 31.5 16.5C31.5 15.9091 31.3836 15.3239 31.1575 14.7779C30.9313 14.232 30.5998 13.7359 30.182 13.318C29.7641 12.9002 29.268 12.5687 28.7221 12.3425C28.1761 12.1164 27.5909 12 27 12C25.8065 12 24.6619 12.4741 23.818 13.318C22.9741 14.1619 22.5 15.3065 22.5 16.5C22.5 17.6935 22.9741 18.8381 23.818 19.682C24.6619 20.5259 25.8065 21 27 21ZM27 23C28.7239 23 30.3772 22.3152 31.5962 21.0962C32.8152 19.8772 33.5 18.2239 33.5 16.5C33.5 14.7761 32.8152 13.1228 31.5962 11.9038C30.3772 10.6848 28.7239 10 27 10C25.2761 10 23.6228 10.6848 22.4038 11.9038C21.1848 13.1228 20.5 14.7761 20.5 16.5C20.5 18.2239 21.1848 19.8772 22.4038 21.0962C23.6228 22.3152 25.2761 23 27 23Z" fill="#25434E"/>
</svg>
