<svg width="74" height="83" viewBox="0 0 74 83" fill="none" xmlns="http://www.w3.org/2000/svg">
<g id="Vector" filter="url(#filter0_d_293_1463)">
<path fill-rule="evenodd" clip-rule="evenodd" d="M40.5705 3.625C40.5705 2.66359 40.1886 1.74156 39.5087 1.06174C38.8289 0.381918 37.9069 0 36.9455 0C35.9841 0 35.062 0.381918 34.3822 1.06174C33.7024 1.74156 33.3205 2.66359 33.3205 3.625L31.8318 28L9.45832 17.4048C9.04591 17.1631 8.58973 17.0052 8.11608 16.9405C7.64242 16.8757 7.16063 16.9053 6.69844 17.0275C6.23626 17.1497 5.80281 17.3621 5.42305 17.6525C5.04329 17.9429 4.72472 18.3055 4.48568 18.7195C4.24664 19.1335 4.09186 19.5907 4.03024 20.0648C3.96862 20.5389 4.00138 21.0205 4.12664 21.4818C4.2519 21.9432 4.46717 22.3752 4.76008 22.7531C5.05299 23.1309 5.41773 23.447 5.83332 23.6833L26.1932 37.4583L5.83332 51.2333C5.0001 51.714 4.39196 52.5061 4.1427 53.4351C3.89343 54.3642 4.02345 55.3543 4.50416 56.1875C4.98486 57.0207 5.77687 57.6289 6.70596 57.8781C7.63505 58.1274 8.6251 57.9974 9.45832 57.5167L31.8318 46.5L33.3205 71.2917C33.3205 72.2531 33.7024 73.1751 34.3822 73.8549C35.062 74.5347 35.9841 74.9167 36.9455 74.9167C37.9069 74.9167 38.8289 74.5347 39.5087 73.8549C40.1886 73.1751 40.5705 72.2531 40.5705 71.2917L42.8318 46.5L64.4327 57.5118C65.2648 57.985 66.2503 58.1097 67.1741 57.8589C68.0979 57.6081 68.885 57.0021 69.3636 56.1731C69.8423 55.3441 69.9736 54.3594 69.7289 53.434C69.4842 52.5086 68.8835 51.7175 68.0577 51.2333L50.1932 37.4583L68.0577 23.6833C68.8909 23.2026 69.499 22.4106 69.7483 21.4815C69.9975 20.5524 69.8675 19.5624 69.3868 18.7292C68.9061 17.8959 68.1141 17.2878 67.185 17.0385C66.2559 16.7893 65.2659 16.9193 64.4327 17.4L43.8318 28L40.5705 3.625Z" fill="#25434E"/>
</g>
<defs>
<filter id="filter0_d_293_1463" x="0" y="0" width="73.8721" height="82.9165" filterUnits="userSpaceOnUse" color-interpolation-filters="sRGB">
<feFlood flood-opacity="0" result="BackgroundImageFix"/>
<feColorMatrix in="SourceAlpha" type="matrix" values="0 0 0 0 0 0 0 0 0 0 0 0 0 0 0 0 0 0 127 0" result="hardAlpha"/>
<feOffset dy="4"/>
<feGaussianBlur stdDeviation="2"/>
<feComposite in2="hardAlpha" operator="out"/>
<feColorMatrix type="matrix" values="0 0 0 0 0 0 0 0 0 0 0 0 0 0 0 0 0 0 0.25 0"/>
<feBlend mode="normal" in2="BackgroundImageFix" result="effect1_dropShadow_293_1463"/>
<feBlend mode="normal" in="SourceGraphic" in2="effect1_dropShadow_293_1463" result="shape"/>
</filter>
</defs>
</svg>
